<svg xmlns="http://www.w3.org/2000/svg" width="22" height="26" viewBox="0 0 22 26">
    <path fill="#34343E" fill-rule="evenodd" d="M9.504 15.867l.794-1.447 1.365-2.398.779 1.157 1.478 2.247-4.416.441zm5.568 8.321l-2.047-3.306a1.718 1.718 0 0 0-1.62-.81L.335 21.113v-2.514l5.748-.539-.006.01 1.511-.15 6.473-.609c.675-.062 1.33.25 1.712.815l3.798 5.641-4.498.422zM10.985 4.4l2.82-.265-5.226 9.541-.705 1.238a2.606 2.606 0 0 1-2.017 1.307l-5.524.518v-2.662l4.204-.393c.857-.08 1.62-.581 2.04-1.338L10.985 4.4zm-5.54 6.144a2.724 2.724 0 0 1-2.124 1.394l-2.988.28V7.49c0-1.245.853-2.17 2.108-2.289l6.296-.59-3.291 5.933zm6.497 12.43l.881 1.425-9.87.926c-1.296.121-2.62-1.067-2.62-2.354l9.768-.915a1.95 1.95 0 0 1 1.841.918zm5.095-14.59a2.033 2.033 0 0 0 .021 2.146l4.609 7.237v5.493l-7.528-11.18-.479-.728a2.78 2.78 0 0 1-.115-2.861l2.502-4.566 3.933-.37-2.943 4.828zm2.398 2.114a2.313 2.313 0 0 1-.023-2.443l2.255-3.7v9.648l-2.232-3.505zM2.2 1.981C2.2.75 3.195-.13 4.424.016L20.14 1.889c.247.03.285.39.045.415L2.199 4.155V1.981z"/>
</svg>
