<svg xmlns="http://www.w3.org/2000/svg" width="12" height="13" viewBox="0 0 12 13">
    <path fill="#ABB8C8" fill-rule="nonzero" d="M6.608 11.822a.516.516 0 0 1-.065.078 3.889 3.889 0 0 1-5.421 0 3.708 3.708 0 0 1 .031-5.345L6.891.93a.515.515 0 0 1 .067-.081 2.994 2.994 0 0 1 4.177 0 2.856 2.856 0 0 1 .061 4.034l-.009.009a2.982 2.982 0 0 1-.075.074l-5.745 5.633a.525.525 0 0 1-.042.04l-.003.004a2.125 2.125 0 0 1-2.933-.03 2.026 2.026 0 0 1 .02-2.924l3.704-3.633c.204-.2.534-.2.737 0 .204.2.204.523 0 .722L3.1 8.456a1.018 1.018 0 0 0 .026 1.434 1.068 1.068 0 0 0 1.47.02l5.844-5.73c.704-.736.69-1.89-.042-2.609a1.938 1.938 0 0 0-2.588-.104.519.519 0 0 1-.046.052L1.89 7.278a.525.525 0 0 1-.03.03 2.7 2.7 0 0 0 0 3.869 2.832 2.832 0 0 0 3.905.04.516.516 0 0 1 .064-.076l3.754-3.683c.204-.2.534-.2.737 0 .204.2.204.523 0 .723l-3.712 3.64z"/>
</svg>
