<?xml version="1.0" encoding="UTF-8"?>
<svg width="12px" height="12px" viewBox="0 0 12 12" version="1.1" xmlns="http://www.w3.org/2000/svg" xmlns:xlink="http://www.w3.org/1999/xlink">
    <!-- Generator: sketchtool 49.3 (51167) - http://www.bohemiancoding.com/sketch -->
    <title>25D2CAB6-A78B-4B40-99FF-9AA404F56552</title>
    <desc>Created with sketchtool.</desc>
    <defs></defs>
    <g id="Page-1" stroke="none" stroke-width="1" fill="none" fill-rule="evenodd">
        <g id="contract" transform="translate(-480.000000, -141.000000)" fill="#FFFFFF">
            <g id="columns" transform="translate(197.000000, 84.000000)">
                <g id="column" transform="translate(277.000000, 20.000000)">
                    <g id="small-button-ic" transform="translate(0.000000, 31.000000)">
                        <path d="M17.052017,6 C17.5753715,6 18,6.42356688 18,6.94585987 L18,17.052017 C18,17.5753715 17.5753715,18 17.052017,18 L6.94798301,18 C6.42356688,18 6,17.5753715 6,17.052017 L6,6.94585987 C6,6.42356688 6.42356688,6 6.94798301,6 L17.052017,6 Z M17.3683652,17.052017 L17.3683652,9.47239915 C17.3683652,9.29830149 17.2271762,9.15711253 17.052017,9.15711253 L6.94798301,9.15711253 C6.77388535,9.15711253 6.63163482,9.29830149 6.63163482,9.47239915 L6.63163482,17.052017 C6.63163482,17.2261146 6.77388535,17.3683652 6.94798301,17.3683652 L17.052017,17.3683652 C17.2271762,17.3683652 17.3683652,17.2261146 17.3683652,17.052017 Z M9.7888535,11.05138 L9.7888535,10.4197452 L10.4215499,10.4197452 L10.4215499,11.05138 L9.7888535,11.05138 Z M11.683758,11.05138 L11.683758,10.4197452 L12.3153928,10.4197452 L12.3153928,11.05138 L11.683758,11.05138 Z M13.579724,11.05138 L13.579724,10.4197452 L14.2113588,10.4197452 L14.2113588,11.05138 L13.579724,11.05138 Z M15.4735669,11.05138 L15.4735669,10.4197452 L16.1062633,10.4197452 L16.1062633,11.05138 L15.4735669,11.05138 Z M9.7888535,13.5779193 L9.7888535,12.9473461 L10.4215499,12.9473461 L10.4215499,13.5779193 L9.7888535,13.5779193 Z M11.683758,13.5779193 L11.683758,12.9473461 L12.3153928,12.9473461 L12.3153928,13.5779193 L11.683758,13.5779193 Z M7.89501062,13.5779193 L7.89501062,12.9473461 L8.52664544,12.9473461 L8.52664544,13.5779193 L7.89501062,13.5779193 Z M9.7888535,16.1044586 L9.7888535,15.4728238 L10.4215499,15.4728238 L10.4215499,16.1044586 L9.7888535,16.1044586 Z M11.683758,16.1044586 L11.683758,15.4728238 L12.3153928,15.4728238 L12.3153928,16.1044586 L11.683758,16.1044586 Z M13.579724,16.1044586 L13.579724,15.4728238 L14.2113588,15.4728238 L14.2113588,16.1044586 L13.579724,16.1044586 Z M7.89501062,16.1044586 L7.89501062,15.4728238 L8.52664544,15.4728238 L8.52664544,16.1044586 L7.89501062,16.1044586 Z M15.4735669,13.5779193 L15.4735669,12.9473461 L16.1062633,12.9473461 L16.1062633,13.5779193 L15.4735669,13.5779193 Z M13.8943737,12.3153928 C14.4177282,12.3153928 14.8423567,12.7389597 14.8423567,13.2633758 C14.8423567,13.7856688 14.4177282,14.2102972 13.8943737,14.2102972 C13.3720807,14.2102972 12.9474522,13.7856688 12.9474522,13.2633758 C12.9474522,12.7389597 13.3720807,12.3153928 13.8943737,12.3153928 Z" id="calendar-ic"></path>
                    </g>
                </g>
            </g>
        </g>
    </g>
</svg>