<svg xmlns="http://www.w3.org/2000/svg" width="8" height="8" viewBox="0 0 8 8">
    <path fill="#34343E" fill-rule="evenodd" d="M7.368 0C7.717 0 8 .282 8 .63v6.738A.632.632 0 0 1 7.368 8H.632A.632.632 0 0 1 0 7.368V.631C0 .282.282 0 .632 0h6.736zm.21 7.368V2.315a.21.21 0 0 0-.21-.21H.632a.21.21 0 0 0-.21.21v5.053c0 .116.094.21.21.21h6.736c.117 0 .21-.094.21-.21zm-5.052-4v-.422h.422v.422h-.422zm1.263 0v-.422h.421v.422h-.42zm1.264 0v-.422h.421v.422h-.42zm1.263 0v-.422h.422v.422h-.422zm-3.79 1.684v-.42h.422v.42h-.422zm1.263 0v-.42h.421v.42h-.42zm-2.526 0v-.42h.421v.42h-.42zm1.263 1.684v-.42h.422v.42h-.422zm1.263 0v-.42h.421v.42h-.42zm1.264 0v-.42h.421v.42h-.42zm-3.79 0v-.42h.421v.42h-.42zm5.053-1.684v-.42h.422v.42h-.422zM5.263 4.21a.632.632 0 1 1 0 1.264.632.632 0 0 1 0-1.264z"/>
</svg>
