<?xml version="1.0" encoding="UTF-8"?>
<svg width="16px" height="16px" viewBox="0 0 16 16" version="1.1" xmlns="http://www.w3.org/2000/svg" xmlns:xlink="http://www.w3.org/1999/xlink">
    <!-- Generator: sketchtool 50 (54983) - http://www.bohemiancoding.com/sketch -->
    <title>9910A530-831C-4B34-87F9-C651417C1B4B</title>
    <desc>Created with sketchtool.</desc>
    <defs></defs>
    <g id="Page-1" stroke="none" stroke-width="1" fill="none" fill-rule="evenodd">
        <g id="contract-list-vertical" transform="translate(-28.000000, -187.000000)" fill="#34343E">
            <g id="left" transform="translate(20.000000, 118.000000)">
                <g id="calendar-date" transform="translate(0.000000, 61.000000)">
                    <path d="M22.7360226,8 C23.4338287,8 24,8.56475584 24,9.2611465 L24,22.7360226 C24,23.4338287 23.4338287,24 22.7360226,24 L9.26397735,24 C8.56475584,24 8,23.4338287 8,22.7360226 L8,9.2611465 C8,8.56475584 8.56475584,8 9.26397735,8 L22.7360226,8 Z M23.1578202,22.7360226 L23.1578202,12.6298655 C23.1578202,12.3977353 22.9695683,12.2094834 22.7360226,12.2094834 L9.26397735,12.2094834 C9.03184713,12.2094834 8.84217976,12.3977353 8.84217976,12.6298655 L8.84217976,22.7360226 C8.84217976,22.9681529 9.03184713,23.1578202 9.26397735,23.1578202 L22.7360226,23.1578202 C22.9695683,23.1578202 23.1578202,22.9681529 23.1578202,22.7360226 Z M13.0518047,14.7351734 L13.0518047,13.8929936 L13.8953999,13.8929936 L13.8953999,14.7351734 L13.0518047,14.7351734 Z M15.5783439,14.7351734 L15.5783439,13.8929936 L16.4205237,13.8929936 L16.4205237,14.7351734 L15.5783439,14.7351734 Z M18.1062987,14.7351734 L18.1062987,13.8929936 L18.9484784,13.8929936 L18.9484784,14.7351734 L18.1062987,14.7351734 Z M20.6314225,14.7351734 L20.6314225,13.8929936 L21.4750177,13.8929936 L21.4750177,14.7351734 L20.6314225,14.7351734 Z M13.0518047,18.1038924 L13.0518047,17.2631281 L13.8953999,17.2631281 L13.8953999,18.1038924 L13.0518047,18.1038924 Z M15.5783439,18.1038924 L15.5783439,17.2631281 L16.4205237,17.2631281 L16.4205237,18.1038924 L15.5783439,18.1038924 Z M10.5266808,18.1038924 L10.5266808,17.2631281 L11.3688606,17.2631281 L11.3688606,18.1038924 L10.5266808,18.1038924 Z M13.0518047,21.4726115 L13.0518047,20.6304317 L13.8953999,20.6304317 L13.8953999,21.4726115 L13.0518047,21.4726115 Z M15.5783439,21.4726115 L15.5783439,20.6304317 L16.4205237,20.6304317 L16.4205237,21.4726115 L15.5783439,21.4726115 Z M18.1062987,21.4726115 L18.1062987,20.6304317 L18.9484784,20.6304317 L18.9484784,21.4726115 L18.1062987,21.4726115 Z M10.5266808,21.4726115 L10.5266808,20.6304317 L11.3688606,20.6304317 L11.3688606,21.4726115 L10.5266808,21.4726115 Z M20.6314225,18.1038924 L20.6314225,17.2631281 L21.4750177,17.2631281 L21.4750177,18.1038924 L20.6314225,18.1038924 Z M18.5258316,16.4205237 C19.2236377,16.4205237 19.7898089,16.9852795 19.7898089,17.6845011 C19.7898089,18.3808917 19.2236377,18.947063 18.5258316,18.947063 C17.8294409,18.947063 17.2632696,18.3808917 17.2632696,17.6845011 C17.2632696,16.9852795 17.8294409,16.4205237 18.5258316,16.4205237 Z" id="calendar-ic"></path>
                </g>
            </g>
        </g>
    </g>
</svg>