<svg xmlns="http://www.w3.org/2000/svg" width="16" height="15" viewBox="0 0 16 15">
    <path fill="#FFF" fill-rule="evenodd" d="M12.618 12.36c.222.78.697 1.796 1.712 2.59 0 0-2.765.472-4.73-1.479a9.384 9.384 0 0 1-1.6.138c-4.417 0-8-3.046-8-6.804C0 3.047 3.583 0 8 0c4.419 0 8 3.047 8 6.805 0 2.295-1.336 4.323-3.382 5.556zm.377-4.562c.15-.172.245-.396.258-.626.023-.335-.08-.62-.307-.853a1 1 0 0 0-.67-.316 1.069 1.069 0 0 0-.879.378c-.17.199-.255.435-.255.705a1.078 1.078 0 0 0 1.161 1.079c.268-.025.498-.147.692-.367zm-4.23-.002c.15-.17.243-.394.26-.623a1.073 1.073 0 0 0-.31-.854.997.997 0 0 0-.668-.316 1.073 1.073 0 0 0-1.134 1.083c0 .326.123.601.375.825.168.15.387.244.61.256.344.02.633-.104.867-.37zm-4.168.002a1.07 1.07 0 0 0 .258-.626 1.067 1.067 0 0 0-.308-.853.994.994 0 0 0-.667-.316 1.075 1.075 0 0 0-1.137 1.083c0 .326.125.601.375.825.17.15.387.244.612.256.343.02.633-.104.867-.37z"/>
</svg>
