<svg xmlns="http://www.w3.org/2000/svg" width="28" height="32" viewBox="0 0 28 32">
    <path fill="#1F7044" fill-rule="evenodd" d="M21 26.666V5.333h7v21.333h-7zM19.596 0h.003v32L0 26.667V5.332L19.597 0zM3.652 23.007h4.946v-1.895h-1.32l1.812-2.878c.211-.34.318-.609.37-.609h.035c.018.072.054.125.088.18.07.142.177.249.3.429l1.884 2.878h-1.338v1.895h5.121v-1.895h-1.196l-3.379-4.882 3.431-5.042h1.18V9.275h-4.911v1.913h1.303l-1.813 2.843c-.212.34-.37.608-.37.59H9.76c-.018-.072-.053-.125-.088-.178a2.41 2.41 0 0 0-.3-.412l-1.865-2.843h1.338V9.275H3.74v1.913h1.196l3.327 4.864-3.415 5.06H3.652v1.895z"/>
</svg>
