<svg id="Layer_1" data-name="Layer 1" xmlns="http://www.w3.org/2000/svg" viewBox="0 0 101.5 32.78"><defs><style>.cls-1{fill:#ffd24f;}.cls-2{fill:#fcfcfc;}</style></defs><title>logo_alet_color</title><polygon class="cls-1" points="11.96 20.53 17.72 19.96 15.79 17.05 14.77 15.55 12.99 18.66 11.96 20.53"/><path class="cls-1" d="M47.72,54.53,53.58,54l-4.95-7.3a2.41,2.41,0,0,0-2.23-1L38,46.42l-2,.2v0l-7.49.7v3.25l14.44-1.34a2.25,2.25,0,0,1,2.11,1Z" transform="translate(-28.5 -23.24)"/><path class="cls-1" d="M42.39,28.93,36.64,39.21A3.4,3.4,0,0,1,34,40.94l-5.48.51V44.9l7.2-.67a3.43,3.43,0,0,0,2.63-1.69l.92-1.61,6.82-12.34Z" transform="translate(-28.5 -23.24)"/><path class="cls-1" d="M35.16,36.88l4.3-7.67L31.25,30a2.89,2.89,0,0,0-2.75,3v6.12l3.89-.36A3.55,3.55,0,0,0,35.16,36.88Z" transform="translate(-28.5 -23.24)"/><path class="cls-1" d="M43.64,53a2.57,2.57,0,0,0-2.4-1.18L28.5,53h0a3.28,3.28,0,0,0,3.41,3l12.88-1.2Z" transform="translate(-28.5 -23.24)"/><path class="cls-1" d="M50.28,34.09l3.84-6.25L49,28.32l-3.26,5.91a3.55,3.55,0,0,0,.15,3.7l.62.94,9.82,14.46v-7.1l-6-9.37A2.61,2.61,0,0,1,50.28,34.09Z" transform="translate(-28.5 -23.24)"/><path class="cls-1" d="M53.41,36.82l2.91,4.54V28.88l-2.94,4.78A3,3,0,0,0,53.41,36.82Z" transform="translate(-28.5 -23.24)"/><path class="cls-1" d="M30.93,25.8v2.82l23.45-2.4c.32,0,.27-.5-.06-.54L33.83,23.26A2.52,2.52,0,0,0,30.93,25.8Z" transform="translate(-28.5 -23.24)"/><path class="cls-2" d="M77,33.52H68.76v3.2a1,1,0,0,0,1,1H77a1.44,1.44,0,0,1,1.56,1.53v1H72.66a5.94,5.94,0,0,0-5.93,5.93V47A5.94,5.94,0,0,0,72.66,53h8.51A1.77,1.77,0,0,0,83,51.17V39.23C83,35.81,80.57,33.52,77,33.52ZM71.14,46.06a1.51,1.51,0,0,1,1.52-1.53h5.66l.27,0v4.13H72.66a1.51,1.51,0,0,1-1.52-1.53Z" transform="translate(-28.5 -23.24)"/><path class="cls-2" d="M91.72,24.42H88.33V51.93a1,1,0,0,0,1,1h3.39V25.44A1,1,0,0,0,91.72,24.42Z" transform="translate(-28.5 -23.24)"/><path class="cls-2" d="M109.14,33.52h-4.88a5.54,5.54,0,0,0-5.93,5.79V47A5.94,5.94,0,0,0,104.26,53h10V49.71a1,1,0,0,0-1-1h-9a1.51,1.51,0,0,1-1.52-1.53V45.47a2.36,2.36,0,0,0,.8.13h10a1.49,1.49,0,0,0,1.57-1.75V39.31A5.54,5.54,0,0,0,109.14,33.52Zm-6.4,5.75a1.38,1.38,0,0,1,1.52-1.53h5c1.08,0,1.49.42,1.49,1.53v2.11h-8Z" transform="translate(-28.5 -23.24)"/><path class="cls-2" d="M129,48.69h-3.27a1.51,1.51,0,0,1-1.53-1.53V37.78h3.89a1,1,0,0,0,1-1V33.55h-4.47a2.12,2.12,0,0,0-.44.05V25.74a1,1,0,0,0-1-1h-3.39V47A5.94,5.94,0,0,0,125.71,53H130V49.71A1,1,0,0,0,129,48.69Z" transform="translate(-28.5 -23.24)"/></svg>