<?xml version="1.0" encoding="UTF-8"?>
<svg width="14px" height="14px" viewBox="0 0 14 14" version="1.1" xmlns="http://www.w3.org/2000/svg" xmlns:xlink="http://www.w3.org/1999/xlink">
    <!-- Generator: sketchtool 50.2 (55047) - http://www.bohemiancoding.com/sketch -->
    <title>A509BB8A-6F6F-4AE9-8AE8-7031AB4ABF30</title>
    <desc>Created with sketchtool.</desc>
    <defs></defs>
    <g id="Page-1" stroke="none" stroke-width="1" fill="none" fill-rule="evenodd" opacity="0.800000012">
        <g id="chat" transform="translate(-831.000000, -99.000000)" fill="#FAFBFC">
            <g transform="translate(663.000000, 32.000000)" id="chat-header">
                <g>
                    <g id="Group-4" transform="translate(168.000000, 67.000000)">
                        <path d="M12.8428474,9.86253333 L12.3798957,10.6708 C12.252024,10.8943333 11.9692128,10.9704 11.7475373,10.8416 L10.4618196,10.0930667 C9.80939378,10.8355333 8.92689212,11.3675333 7.92538574,11.5728667 L7.92538574,12.6 C7.92538574,12.8580667 7.71864421,13.0666667 7.46290073,13.0666667 L6.53699735,13.0666667 C6.28125388,13.0666667 6.07451234,12.8580667 6.07451234,12.6 L6.07451234,11.5728667 C5.07300597,11.3675333 4.1905043,10.8355333 3.53807843,10.0930667 L2.25236079,10.8416 C2.03068533,10.9704 1.74787411,10.8943333 1.62000238,10.6708 L1.15705069,9.86253333 C1.02917895,9.63946667 1.10524863,9.35386667 1.3264574,9.22553333 L2.61730859,8.47326667 C2.46376917,8.0094 2.37183219,7.51613333 2.37183219,7 C2.37183219,6.48386667 2.46376917,5.99106667 2.61730859,5.52673333 L1.3264574,4.77493333 C1.10524863,4.64613333 1.02917895,4.361 1.15705069,4.13746667 L1.62000238,3.3292 C1.74787411,3.10613333 2.03068533,3.0296 2.25236079,3.1584 L3.53807843,3.90693333 C4.1905043,3.16446667 5.07300597,2.63246667 6.07451234,2.42713333 L6.07451234,1.4 C6.07451234,1.14193333 6.28125388,0.933333333 6.53699735,0.933333333 L7.46290073,0.933333333 C7.71864421,0.933333333 7.92538574,1.14193333 7.92538574,1.4 L7.92538574,2.42713333 C8.92689212,2.63246667 9.80939378,3.16446667 10.4618196,3.90693333 L11.7475373,3.1584 C11.9692128,3.0296 12.252024,3.10613333 12.3798957,3.3292 L12.8428474,4.13746667 C12.9707191,4.361 12.8946494,4.64613333 12.6734407,4.77493333 L11.3825895,5.52673333 C11.5361289,5.99106667 11.6280659,6.48386667 11.6280659,7 C11.6280659,7.51613333 11.5361289,8.0094 11.3825895,8.47326667 L12.6734407,9.22553333 C12.8946494,9.35386667 12.9707191,9.63946667 12.8428474,9.86253333 L12.8428474,9.86253333 Z M13.5372749,8.65013333 L12.4531653,8.0192 C12.5138343,7.68786667 12.5539693,7.34953333 12.5539693,7 C12.5539693,6.65093333 12.5138343,6.31213333 12.4531653,5.9808 L13.5372749,5.34986667 C13.9801592,5.09226667 14.1313652,4.52106667 13.8756217,4.07493333 L12.950185,2.4584 C12.6949082,2.01226667 12.1283524,1.85873333 11.6859349,2.1168 L10.5906248,2.7538 C10.0791378,2.31513333 9.49764808,1.95626667 8.85128912,1.72526667 L8.85128912,0.933333333 C8.85128912,0.418133333 8.43687268,0 7.92538574,0 L6.07451234,0 C5.5630254,0 5.14860896,0.418133333 5.14860896,0.933333333 L5.14860896,1.72526667 C4.50225,1.95626667 3.92076028,2.31513333 3.40927333,2.7538 L2.31396323,2.1168 C1.87154569,1.85873333 1.30498989,2.01226667 1.0497131,2.4584 L0.124276402,4.07493333 C-0.131467073,4.52106667 0.0202056083,5.09226667 0.462623151,5.34986667 L1.54673281,5.9808 C1.48606373,6.31213333 1.44592881,6.65093333 1.44592881,7 C1.44592881,7.34953333 1.48606373,7.68786667 1.54673281,8.0192 L0.462623151,8.65013333 C0.0202056083,8.90773333 -0.131467073,9.47893333 0.124276402,9.92506667 L1.0497131,11.5416 C1.30498989,11.9877333 1.87154569,12.1412667 2.31396323,11.8832 L3.40927333,11.2462 C3.92076028,11.6848667 4.50225,12.0442 5.14860896,12.2747333 L5.14860896,13.0666667 C5.14860896,13.5818667 5.5630254,14 6.07451234,14 L7.92538574,14 C8.43687268,14 8.85128912,13.5818667 8.85128912,13.0666667 L8.85128912,12.2747333 C9.49764808,12.0442 10.0791378,11.6848667 10.5906248,11.2462 L11.6859349,11.8832 C12.1283524,12.1412667 12.6949082,11.9877333 12.950185,11.5416 L13.8756217,9.92506667 C14.1313652,9.47893333 13.9801592,8.90773333 13.5372749,8.65013333 L13.5372749,8.65013333 Z M6.99994904,8.4 C6.2331853,8.4 5.61156065,7.77326667 5.61156065,7 C5.61156065,6.2272 6.2331853,5.6 6.99994904,5.6 C7.76671278,5.6 8.38833743,6.2272 8.38833743,7 C8.38833743,7.77326667 7.76671278,8.4 6.99994904,8.4 L6.99994904,8.4 Z M6.99994904,4.66666667 C5.72169835,4.66666667 4.68612396,5.71106667 4.68612396,7 C4.68612396,8.28893333 5.72169835,9.33333333 6.99994904,9.33333333 C8.27819973,9.33333333 9.31424081,8.28893333 9.31424081,7 C9.31424081,5.71106667 8.27819973,4.66666667 6.99994904,4.66666667 L6.99994904,4.66666667 Z" id="cog-ic"></path>
                    </g>
                </g>
            </g>
        </g>
    </g>
</svg>