<svg xmlns="http://www.w3.org/2000/svg" width="28" height="32" viewBox="0 0 28 32">
    <path fill="#E21E00" fill-rule="evenodd" d="M21 26.667V5.334h7v21.333h-7zM19.6 0v32L0 26.667V5.333L19.6 0zm-7.22 17.53a10.128 10.128 0 0 1-1.228-.832c-.863-.713-1.624-1.976-2.135-3.535.175-1.026.19-1.918.205-2.854v-.445c0-.045 0-.074-.015-.12.03-.028.043-.074.058-.118.088-.476.044-.802-.132-1.01-.116-.149-.292-.223-.511-.223h-.323c-.292 0-.511.223-.613.595-.264.98-.117 2.643.35 4.263-.35 1.248-.862 2.555-1.52 3.893a38.684 38.684 0 0 1-1.566 2.927.11.11 0 0 0-.029-.06c-.073-.12-.22-.163-.336-.089-1.813.966-2.603 2.11-2.75 2.792-.044.298.015.461.088.536.03.03.044.059.088.075l.35.178a.805.805 0 0 0 .41.103c.878 0 2.033-1.278 3.54-3.892 1.566-.55 3.7-1.01 5.733-1.233 1.229.653 2.647 1.084 3.584 1.084.774 0 .994-.296 1.038-.565v-.014c.014-.015.029-.045.043-.06.161-.356.073-.623-.029-.772-.365-.61-1.61-.728-2.588-.728-.527 0-1.098.03-1.712.104zm1.756.832c1.594 0 1.974.282 2.047.357.014.014.029.03.029.044-.059.015-.132.015-.263.015-.44 0-1.098-.149-1.813-.416zm-5.617-7.265c-.116-.832-.116-1.545.03-1.96 0-.016.014-.03.014-.061.088.105.176.268.19.535.015.03.015.06.03.075a.42.42 0 0 0-.06.118c-.028.179-.072.386-.101.639-.03.194-.059.417-.103.654zm-3.788 9.36c-1.096.862-1.784 1.842-2.003 2.347.438-.208 1.068-.847 2.003-2.347zm6.157-2.704a22.02 22.02 0 0 0-4.153 1.204c.22-.402.439-.817.658-1.234.526-1.054.936-2.02 1.214-2.927.497 1.084 1.14 1.977 1.857 2.616.132.118.278.222.424.341z"/>
</svg>
