<svg xmlns="http://www.w3.org/2000/svg" width="28" height="32" viewBox="0 0 28 32">
    <path fill="#D14524" fill-rule="evenodd" d="M21 26.666V5.333h7v21.333h-7zM19.596 0h.003v32L0 26.667V5.332L19.597 0zM4.565 21.834h5.087v-1.676H8.206v-2.64h2.131c.668 0 1.276-.03 1.836-.237 1.4-.49 2.271-1.96 2.271-3.683 0-1.723-.84-3.052-2.131-3.605-.59-.237-1.308-.3-2.023-.3H4.565v1.69h1.431v8.775h-1.43v1.676zm3.64-6.102v-4.237h1.867c.545 0 .965.095 1.292.284.56.333.871.98.871 1.819 0 .885-.311 1.565-.965 1.897-.326.158-.73.237-1.213.237H8.206z"/>
</svg>
