<?xml version="1.0" encoding="UTF-8"?>
<svg width="10px" height="10px" viewBox="0 0 10 10" version="1.1" xmlns="http://www.w3.org/2000/svg" xmlns:xlink="http://www.w3.org/1999/xlink">
    <!-- Generator: sketchtool 50.2 (55047) - http://www.bohemiancoding.com/sketch -->
    <title>E21954BE-3449-4EB7-933A-C5A4F8E2562A</title>
    <desc>Created with sketchtool.</desc>
    <defs></defs>
    <g id="Page-1" stroke="none" stroke-width="1" fill="none" fill-rule="evenodd" opacity="0.800000012">
        <g id="chat" transform="translate(-708.000000, -101.000000)" fill="#FFFFFF" fill-rule="nonzero">
            <g transform="translate(663.000000, 32.000000)" id="chat-header">
                <g>
                    <g id="Group-5" transform="translate(45.000000, 68.000000)">
                        <g id="Group-3" transform="translate(0.000000, 1.000000)">
                            <path d="M6.12132034,6.12132034 C7.29289322,4.94974747 7.29289322,3.05025253 6.12132034,1.87867966 C4.94974747,0.707106781 3.05025253,0.707106781 1.87867966,1.87867966 C0.707106781,3.05025253 0.707106781,4.94974747 1.87867966,6.12132034 C3.05025253,7.29289322 4.94974747,7.29289322 6.12132034,6.12132034 Z M6.45299099,7.16009777 C4.8837762,8.38134666 2.61393553,8.27078978 1.17157288,6.82842712 C-0.390524292,5.26632996 -0.390524292,2.73367004 1.17157288,1.17157288 C2.73367004,-0.390524292 5.26632996,-0.390524292 6.82842712,1.17157288 C8.27078978,2.61393553 8.38134666,4.8837762 7.16009777,6.45299099 L9.30330086,8.59619408 L8.59619408,9.30330086 L6.45299099,7.16009777 Z" id="search-ic"></path>
                        </g>
                    </g>
                </g>
            </g>
        </g>
    </g>
</svg>