<svg xmlns="http://www.w3.org/2000/svg" width="28" height="32" viewBox="0 0 28 32">
    <path fill="#2B589B" fill-rule="evenodd" d="M21 26.667V5.334h7v21.333h-7zM19.6 0v32L0 26.667V5.333L19.6 0zM2.545 12.441h.885l2.073 8.492h2.012l1.618-6.23c.063-.194.102-.386.126-.591.013-.104.026-.206.026-.31h.05l.039.31c.038.179.05.385.114.59l1.619 6.23h2.01l2.075-8.49h.884v-1.375h-3.793v1.374h1.137l-1.252 5.627a3.69 3.69 0 0 0-.088.591l-.026.27h-.05c0-.078-.026-.18-.038-.27-.038-.167-.063-.385-.114-.591l-1.821-7.001H8.588l-1.82 7c-.052.207-.063.425-.102.592l-.05.27h-.051l-.026-.27a3.69 3.69 0 0 0-.088-.591L5.199 12.44h1.139v-1.374H2.544v1.374z"/>
</svg>
