<svg xmlns="http://www.w3.org/2000/svg" xmlns:xlink="http://www.w3.org/1999/xlink" width="34" height="34" viewBox="0 0 34 34">
    <defs>
        <circle id="a" cx="16" cy="16" r="16"/>
    </defs>
    <g fill="none" fill-rule="evenodd" transform="translate(1 1)">
        <mask id="b" fill="#fff">
            <use xlink:href="#a"/>
        </mask>
        <use fill="#F0F4FA" xlink:href="#a"/>
        <circle cx="16" cy="16" r="16.5" stroke="#8B37FF"/>
        <path fill="#8B37FF" d="M6.867 26.608c.432-.199.953-.157 1.365-.304.884-.312 1.912-.428 2.833-.607 1.264-.245 1.699-.901 1.77-2.226.01-.191.118-1.666-.1-1.72-.81-.202-1.015-1.398-1.164-2.124-.05-.242.122-1.384-.102-1.467-.809-.304-1.685-2.472-1.416-3.592.175-.727.354-.505.455-.961.103-.458-.25-.864-.353-1.315-.192-.844-.062-2.219.05-3.087.106-.82.766-1.604 1.315-2.174 1.339-1.392 3.568-2.2 5.548-1.775 1.392.299 2.156.435 3.356 1.167.797.486 1.31 1.38 1.467 2.328.225 1.369.189 2.86-.254 4.198-.077.234-.012.43.051.708.103.456.557.556.607.91.158 1.113-.86 3.188-1.416 3.593-.192.139-.166.656-.203 1.517-.05 1.164-.405 2.023-1.163 2.124-.225.03.062 1.6.072 1.79.072 1.325.515 1.922 1.779 2.168.921.178 1.716.182 2.601.494.287.102.863.328 1.163.456-2.416 2.003-5.679 3.339-9.055 3.339-3.28 0-6.821-1.54-9.206-3.44z" mask="url(#b)"/>
    </g>
</svg>
