<?xml version="1.0" encoding="UTF-8"?>
<svg width="2px" height="10px" viewBox="0 0 2 10" version="1.1" xmlns="http://www.w3.org/2000/svg" xmlns:xlink="http://www.w3.org/1999/xlink">
    <!-- Generator: sketchtool 50.2 (55047) - http://www.bohemiancoding.com/sketch -->
    <title>8B9D0C66-7B2A-4CB8-AD10-5521A96DD48B</title>
    <desc>Created with sketchtool.</desc>
    <defs></defs>
    <g id="Page-1" stroke="none" stroke-width="1" fill="none" fill-rule="evenodd">
        <g id="contract" transform="translate(-112.000000, -288.000000)" fill="#FFFFFF" fill-rule="nonzero">
            <g id="columns" transform="translate(84.000000, 174.000000)">
                <g id="column" transform="translate(17.000000, 0.000000)">
                    <g id="item" transform="translate(0.000000, 107.000000)">
                        <g id="accepted-label" transform="translate(6.000000, 6.000000)">
                            <path d="M5.5,2 C5.5,1.72385763 5.72385763,1.5 6,1.5 C6.27614237,1.5 6.5,1.72385763 6.5,2 L6.5,7 C6.5,7.27614237 6.27614237,7.5 6,7.5 C5.72385763,7.5 5.5,7.27614237 5.5,7 L5.5,2 Z M5.5,9 C5.5,8.72385763 5.72385763,8.5 6,8.5 C6.27614237,8.5 6.5,8.72385763 6.5,9 L6.5,10 C6.5,10.2761424 6.27614237,10.5 6,10.5 C5.72385763,10.5 5.5,10.2761424 5.5,10 L5.5,9 Z" id="mark-ic"></path>
                        </g>
                    </g>
                </g>
            </g>
        </g>
    </g>
</svg>