<?xml version="1.0" encoding="UTF-8"?>
<svg width="12px" height="12px" viewBox="0 0 12 12" version="1.1" xmlns="http://www.w3.org/2000/svg" xmlns:xlink="http://www.w3.org/1999/xlink">
    <!-- Generator: sketchtool 50.2 (55047) - http://www.bohemiancoding.com/sketch -->
    <title>10B94ED5-3975-41E2-9AD2-D804ED72B028</title>
    <desc>Created with sketchtool.</desc>
    <defs></defs>
    <g id="Page-1" stroke="none" stroke-width="1" fill="none" fill-rule="evenodd">
        <g id="contract-list-vertical" transform="translate(-148.000000, -700.000000)" fill="#FCFCFC" fill-rule="nonzero">
            <g id="left" transform="translate(20.000000, 118.000000)">
                <g id="types" transform="translate(116.000000, 466.000000)">
                    <g id="date" transform="translate(0.000000, 104.000000)">
                        <path d="M22.5643256,22.68225 C22.8527093,22.68225 23.0863953,22.921 23.0863953,23.216 C23.0863953,23.51125 22.8529535,23.7505 22.564814,23.7505 L21.9123488,23.7505 L14.0876512,23.7505 L13.4354302,23.7505 C13.1472907,23.7505 12.9138488,23.51125 12.9138488,23.216 C12.9138488,22.921 13.1472907,22.68225 13.4354302,22.68225 L13.5912209,22.68225 C13.7709419,20.60375 14.9593953,19.00825 15.8833953,17.87525 C14.9591512,16.7425 13.7709419,15.14675 13.5914651,13.06825 L13.4354302,13.06825 C13.1472907,13.06825 12.9138488,12.829 12.9138488,12.534 C12.9138488,12.23925 13.1472907,12 13.4354302,12 L22.564814,12 C22.8529535,12 23.0863953,12.239 23.0863953,12.534 C23.0863953,12.829 22.8529535,13.06825 22.564814,13.06825 L22.4087791,13.06825 C22.228814,15.1465 21.0406047,16.74225 20.1163605,17.87525 C21.0403605,19.0085 22.2290581,20.604 22.4082907,22.68225 L22.5643256,22.68225 Z M14.6370698,22.68225 L21.3629302,22.68225 C21.1668488,20.8045 19.9744884,19.3585 19.0836977,18.278 L19.0360814,18.22025 C18.8719884,18.02125 18.8719884,17.73025 19.0360814,17.5315 L19.0832093,17.474 C19.974,16.39325 21.1668488,14.94725 21.3629302,13.06925 L14.6370698,13.06925 C14.8331512,14.94725 16.026,16.39325 16.9167907,17.474 L16.9641628,17.5315 C17.1282558,17.7305 17.1282558,18.0215 16.9641628,18.22025 L16.9165465,18.278 C16.0255116,19.3585 14.8331512,20.8045 14.6370698,22.68225 Z M17.7392093,17.60725 C17.7389651,17.295 17.6303023,16.991 17.4332442,16.752 C16.9954186,16.2205 16.6677209,15.64425 16.4594302,15.03925 C16.4313488,14.9575 16.4435581,14.867 16.4923953,14.79625 C16.5414767,14.7255 16.6208372,14.6835 16.7055698,14.6835 L19.294186,14.6835 C19.3789186,14.6835 19.4580349,14.7255 19.5071163,14.79625 C19.5559535,14.867 19.5681628,14.9575 19.5400814,15.03925 C19.3322791,15.64425 19.004093,16.2205 18.5662674,16.752 C18.3694535,16.991 18.2610349,17.29475 18.2607907,17.60725 C18.2607907,17.75425 18.1438256,17.874 18,17.874 C17.8561744,17.874 17.7392093,17.755 17.7392093,17.60725 Z M18.2607907,18.6775 C18.2610349,19.063 18.4859302,19.44425 18.8944535,19.7535 C19.7669302,20.41325 20.4203721,21.13 20.8357326,21.8835 C20.8811512,21.9665 20.8804186,22.0675 20.8337791,22.149 C20.7868953,22.23125 20.701186,22.2815 20.6086395,22.2815 L15.3918488,22.2815 C15.2990581,22.2815 15.2131047,22.23125 15.1667093,22.149 C15.1195814,22.0675 15.1188488,21.9665 15.1645116,21.8835 C15.5801163,21.13 16.233314,20.41325 17.1060349,19.7535 C17.5140698,19.44425 17.7389651,19.063 17.7392093,18.6775 C17.7392093,18.5305 17.8561744,18.41075 18,18.41075 C18.1438256,18.41075 18.2607907,18.53 18.2607907,18.6775 Z" id="hourglass"></path>
                    </g>
                </g>
            </g>
        </g>
    </g>
</svg>