<svg xmlns="http://www.w3.org/2000/svg" width="12" height="6" viewBox="0 0 12 6">
    <path fill="#FCFCFC" fill-rule="evenodd" d="M2.688 6c-.416 0-.79-.076-1.119-.229-.33-.152-.61-.36-.84-.622a2.791 2.791 0 0 1-.538-.942A3.598 3.598 0 0 1 0 3.018c0-.414.06-.805.182-1.17.121-.366.295-.686.52-.96.226-.275.5-.492.824-.65A2.492 2.492 0 0 1 2.636 0c.358 0 .693.064 1.006.192.312.128.607.293.884.494s.538.427.78.677c.243.25.48.503.711.759.22-.256.448-.51.685-.76.237-.25.492-.475.763-.676.272-.201.561-.366.867-.494C8.64.064 8.965 0 9.312 0c.405 0 .772.076 1.101.229.33.152.613.362.85.63.237.27.42.586.546.952.127.366.191.756.191 1.17 0 .428-.06.824-.182 1.19a2.78 2.78 0 0 1-.529.951 2.563 2.563 0 0 1-.841.64c-.33.159-.702.238-1.119.238-.346 0-.673-.058-.98-.174a3.787 3.787 0 0 1-.858-.457 6.902 6.902 0 0 1-.771-.64 10.357 10.357 0 0 1-.703-.741c-.23.244-.465.485-.702.722a6.096 6.096 0 0 1-.763.65c-.272.195-.56.35-.867.466A2.796 2.796 0 0 1 2.688 6zm0-1.409c.231 0 .462-.048.694-.146.23-.097.453-.225.667-.384a7.188 7.188 0 0 0 1.119-1.024l-.538-.53a5.229 5.229 0 0 0-.624-.531 4.324 4.324 0 0 0-.677-.403 1.605 1.605 0 0 0-.693-.164c-.428 0-.763.164-1.006.493-.243.33-.364.702-.364 1.116 0 .464.127.842.381 1.134.255.293.602.44 1.04.44zm6.676 0c.44 0 .778-.149 1.015-.448.237-.298.355-.667.355-1.106 0-.464-.121-.851-.364-1.162-.243-.311-.595-.466-1.058-.466-.231 0-.462.054-.694.164-.23.11-.453.247-.667.412a5.77 5.77 0 0 0-.607.54c-.19.195-.361.371-.512.53.174.17.356.347.547.53.19.183.39.348.598.494.208.147.428.269.659.366.231.098.474.146.728.146z"/>
</svg>
