<?xml version="1.0" encoding="UTF-8"?>
<svg width="20px" height="10px" viewBox="0 0 20 10" version="1.1" xmlns="http://www.w3.org/2000/svg" xmlns:xlink="http://www.w3.org/1999/xlink">
    <!-- Generator: sketchtool 50.2 (55047) - http://www.bohemiancoding.com/sketch -->
    <title>726D0A0A-E9BF-42AF-A136-E69D6AA6FB41</title>
    <desc>Created with sketchtool.</desc>
    <defs>
        <linearGradient x1="-1.11022302e-14%" y1="50%" x2="100%" y2="50%" id="linearGradient-1">
            <stop stop-color="#57DE97" offset="0%"></stop>
            <stop stop-color="#2BD65C" offset="100%"></stop>
        </linearGradient>
    </defs>
    <g id="Page-1" stroke="none" stroke-width="1" fill="none" fill-rule="evenodd">
        <g id="contract-list-vertical" transform="translate(-1252.000000, -303.000000)" fill="url(#linearGradient-1)">
            <g id="Group" transform="translate(191.000000, 118.000000)">
                <g id="contract" transform="translate(0.000000, 166.000000)">
                    <g id="finish" transform="translate(1047.000000, 0.000000)">
                        <path d="M18.4797688,29 C17.7861237,29 17.1647426,28.8729688 16.6156069,28.6189024 C16.0664712,28.3648361 15.5992312,28.0193111 15.2138728,27.5823171 C14.8285145,27.145323 14.5298662,26.6219543 14.3179191,26.0121951 C14.105972,25.402436 14,24.7418735 14,24.0304878 C14,23.3394274 14.1011551,22.6890274 14.3034682,22.0792683 C14.5057814,21.4695091 14.7947958,20.9359779 15.1705202,20.4786585 C15.5462447,20.0213392 16.0038509,19.6605704 16.5433526,19.3963415 C17.0828543,19.1321125 17.6994185,19 18.3930636,19 C18.9903691,19 19.5491303,19.1067062 20.0693642,19.320122 C20.589598,19.5335377 21.0809225,19.8079252 21.5433526,20.1432927 C22.0057827,20.4786602 22.4393043,20.8546727 22.8439306,21.2713415 C23.2485569,21.6880102 23.6435434,22.109754 24.0289017,22.5365854 C24.3949922,22.109754 24.7755279,21.6880102 25.1705202,21.2713415 C25.5655126,20.8546727 25.9894004,20.4786602 26.4421965,20.1432927 C26.8949926,19.8079252 27.3766834,19.5335377 27.8872832,19.320122 C28.3978831,19.1067062 28.9421936,19 29.5202312,19 C30.1946084,19 30.8063556,19.1270313 31.3554913,19.3810976 C31.904627,19.6351639 32.376684,19.9857701 32.7716763,20.4329268 C33.1666686,20.8800835 33.4701338,21.4085335 33.6820809,22.0182927 C33.894028,22.6280518 34,23.2784518 34,23.9695122 C34,24.6808979 33.8988449,25.3414604 33.6965318,25.9512195 C33.4942186,26.5609787 33.2003873,27.0894287 32.8150289,27.5365854 C32.4296705,27.9837421 31.9624305,28.3394296 31.4132948,28.6036585 C30.8641591,28.8678875 30.242778,29 29.5491329,29 C28.9710954,29 28.4267848,28.9034563 27.916185,28.7103659 C27.4055851,28.5172755 26.9287113,28.263213 26.4855491,27.9481707 C26.042387,27.6331285 25.6136822,27.277441 25.199422,26.8810976 C24.7851617,26.4847541 24.3949922,26.0731729 24.0289017,25.6463415 C23.6435434,26.0528476 23.2533738,26.4542663 22.8583815,26.8506098 C22.4633892,27.2469532 22.0395013,27.607722 21.5867052,27.9329268 C21.1339091,28.2581317 20.6522184,28.5172755 20.1416185,28.7103659 C19.6310186,28.9034563 19.0770743,29 18.4797688,29 Z M18.4797688,26.652439 C18.8651272,26.652439 19.2504798,26.571139 19.6358382,26.4085366 C20.0211965,26.2459341 20.3920984,26.0325216 20.7485549,25.7682927 C21.1050114,25.5040637 21.4421949,25.224595 21.7601156,24.929878 C22.0780363,24.6351611 22.3622338,24.3455299 22.6127168,24.0609756 C22.3429659,23.7967466 22.0443176,23.5020341 21.716763,23.1768293 C21.3892084,22.8516244 21.042391,22.5569119 20.6763006,22.2926829 C20.3102101,22.028454 19.9344913,21.804879 19.5491329,21.6219512 C19.1637746,21.4390235 18.778422,21.347561 18.3930636,21.347561 C17.6801506,21.347561 17.1213893,21.6219485 16.716763,22.1707317 C16.3121367,22.7195149 16.1098266,23.3394274 16.1098266,24.0304878 C16.1098266,24.8028494 16.3217705,25.4329244 16.7456647,25.9207317 C17.169559,26.408539 17.7475879,26.652439 18.4797688,26.652439 Z M29.6069364,26.652439 C30.3391173,26.652439 30.9026955,26.4034578 31.2976879,25.9054878 C31.6926802,25.4075178 31.8901734,24.7926866 31.8901734,24.0609756 C31.8901734,23.288614 31.6878633,22.6432953 31.283237,22.125 C30.8786107,21.6067047 30.290948,21.347561 29.5202312,21.347561 C29.1348728,21.347561 28.7495202,21.4390235 28.3641618,21.6219512 C27.9788035,21.804879 27.6079016,22.0335352 27.2514451,22.3079268 C26.8949886,22.5823184 26.5578051,22.8821122 26.2398844,23.2073171 C25.9219637,23.532522 25.6377662,23.8272345 25.3872832,24.0914634 C25.676302,24.3760177 25.9797672,24.6707302 26.2976879,24.9756098 C26.6156085,25.2804893 26.9479751,25.5548768 27.2947977,25.7987805 C27.6416202,26.0426841 28.0077052,26.2459341 28.3930636,26.4085366 C28.778422,26.571139 29.1830422,26.652439 29.6069364,26.652439 Z" id="infinity"></path>
                    </g>
                </g>
            </g>
        </g>
    </g>
</svg>