<?xml version="1.0" encoding="UTF-8"?>
<svg width="6px" height="10px" viewBox="0 0 6 10" version="1.1" xmlns="http://www.w3.org/2000/svg" xmlns:xlink="http://www.w3.org/1999/xlink">
    <!-- Generator: sketchtool 50.2 (55047) - http://www.bohemiancoding.com/sketch -->
    <title>FD838B64-B049-44B0-809B-6ADCC2D19234</title>
    <desc>Created with sketchtool.</desc>
    <defs></defs>
    <g id="Page-1" stroke="none" stroke-width="1" fill="none" fill-rule="evenodd">
        <g id="contract" transform="translate(-370.000000, -344.000000)" fill="#FFFFFF" fill-rule="nonzero">
            <g id="columns" transform="translate(84.000000, 174.000000)">
                <g id="column" transform="translate(277.000000, 0.000000)">
                    <g id="item" transform="translate(0.000000, 163.000000)">
                        <g id="accepted-label" transform="translate(6.000000, 6.000000)">
                            <path d="M5.4999,7.02196392 C5.49262788,6.98802576 5.4888,6.9528099 5.4888,6.9167 C5.4888,6.64055763 5.71265763,6.4167 5.9888,6.4167 C7.01653578,6.4167 7.8488,5.58467942 7.8488,4.5577 C7.8488,3.53009881 7.01691413,2.6987 5.9888,2.6987 C4.96218587,2.6987 4.1298,3.53059852 4.1298,4.5577 C4.1298,4.83384237 3.90594237,5.0577 3.6298,5.0577 C3.35365763,5.0577 3.1298,4.83384237 3.1298,4.5577 C3.1298,2.97818263 4.41003218,1.6987 5.9888,1.6987 C7.56906782,1.6987 8.8488,2.97768292 8.8488,4.5577 C8.8488,5.96263533 7.83584001,7.13043601 6.4999,7.37120949 L6.4999,7.7422 C6.4999,8.01834237 6.27604237,8.2422 5.9999,8.2422 C5.72375763,8.2422 5.4999,8.01834237 5.4999,7.7422 L5.4999,7.02196392 Z M6.4999,9.7832 C6.4999,10.0593424 6.27604237,10.2832 5.9999,10.2832 C5.72375763,10.2832 5.4999,10.0593424 5.4999,9.7832 L5.4999,9.5922 C5.4999,9.31605763 5.72375763,9.0922 5.9999,9.0922 C6.27604237,9.0922 6.4999,9.31605763 6.4999,9.5922 L6.4999,9.7832 Z" id="question-mark-ic"></path>
                        </g>
                    </g>
                </g>
            </g>
        </g>
    </g>
</svg>