<?xml version="1.0" encoding="UTF-8"?>
<svg width="14px" height="16px" viewBox="0 0 14 16" version="1.1" xmlns="http://www.w3.org/2000/svg" xmlns:xlink="http://www.w3.org/1999/xlink">
    <!-- Generator: sketchtool 50.2 (55047) - http://www.bohemiancoding.com/sketch -->
    <title>530F4362-8DB5-4FCE-883B-7335D500ADA7</title>
    <desc>Created with sketchtool.</desc>
    <defs>
        <linearGradient x1="-1.11022302e-14%" y1="50%" x2="100%" y2="50%" id="linearGradient-1">
            <stop stop-color="#FF8282" offset="0%"></stop>
            <stop stop-color="#FF4F4F" offset="100%"></stop>
        </linearGradient>
    </defs>
    <g id="Page-1" stroke="none" stroke-width="1" fill="none" fill-rule="evenodd">
        <g id="contract-list-vertical" transform="translate(-775.000000, -612.000000)" fill="url(#linearGradient-1)" fill-rule="nonzero">
            <g id="Group" transform="translate(191.000000, 118.000000)">
                <g id="contract" transform="translate(0.000000, 478.000000)">
                    <g id="finish" transform="translate(567.000000, 0.000000)">
                        <path d="M30.0857674,30.243 C30.4702791,30.243 30.7818605,30.5613333 30.7818605,30.9546667 C30.7818605,31.3483333 30.4706047,31.6673333 30.0864186,31.6673333 L29.2164651,31.6673333 L18.7835349,31.6673333 L17.913907,31.6673333 C17.5297209,31.6673333 17.2184651,31.3483333 17.2184651,30.9546667 C17.2184651,30.5613333 17.5297209,30.243 17.913907,30.243 L18.1216279,30.243 C18.3612558,27.4716667 19.9458605,25.3443333 21.1778605,23.8336667 C19.9455349,22.3233333 18.3612558,20.1956667 18.1219535,17.4243333 L17.913907,17.4243333 C17.5297209,17.4243333 17.2184651,17.1053333 17.2184651,16.712 C17.2184651,16.319 17.5297209,16 17.913907,16 L30.0864186,16 C30.4706047,16 30.7818605,16.3186667 30.7818605,16.712 C30.7818605,17.1053333 30.4706047,17.4243333 30.0864186,17.4243333 L29.8783721,17.4243333 C29.6384186,20.1953333 28.0541395,22.323 26.821814,23.8336667 C28.053814,25.3446667 29.6387442,27.472 29.8777209,30.243 L30.0857674,30.243 Z M19.516093,30.243 L28.483907,30.243 C28.2224651,27.7393333 26.6326512,25.8113333 25.4449302,24.3706667 L25.3814419,24.2936667 C25.1626512,24.0283333 25.1626512,23.6403333 25.3814419,23.3753333 L25.4442791,23.2986667 C26.632,21.8576667 28.2224651,19.9296667 28.483907,17.4256667 L19.516093,17.4256667 C19.7775349,19.9296667 21.368,21.8576667 22.5557209,23.2986667 L22.6188837,23.3753333 C22.8376744,23.6406667 22.8376744,24.0286667 22.6188837,24.2936667 L22.5553953,24.3706667 C21.3673488,25.8113333 19.7775349,27.7393333 19.516093,30.243 Z M23.6522791,23.4763333 C23.6519535,23.06 23.5070698,22.6546667 23.2443256,22.336 C22.6605581,21.6273333 22.2236279,20.859 21.945907,20.0523333 C21.9084651,19.9433333 21.9247442,19.8226667 21.9898605,19.7283333 C22.0553023,19.634 22.1611163,19.578 22.274093,19.578 L25.7255814,19.578 C25.8385581,19.578 25.9440465,19.634 26.0094884,19.7283333 C26.0746047,19.8226667 26.0908837,19.9433333 26.0534419,20.0523333 C25.7763721,20.859 25.3387907,21.6273333 24.7550233,22.336 C24.4926047,22.6546667 24.3480465,23.0596667 24.3477209,23.4763333 C24.3477209,23.6723333 24.1917674,23.832 24,23.832 C23.8082326,23.832 23.6522791,23.6733333 23.6522791,23.4763333 Z M24.3477209,24.9033333 C24.3480465,25.4173333 24.647907,25.9256667 25.1926047,26.338 C26.355907,27.2176667 27.2271628,28.1733333 27.7809767,29.178 C27.8415349,29.2886667 27.8405581,29.4233333 27.7783721,29.532 C27.7158605,29.6416667 27.6015814,29.7086667 27.478186,29.7086667 L20.5224651,29.7086667 C20.3987442,29.7086667 20.2841395,29.6416667 20.2222791,29.532 C20.1594419,29.4233333 20.1584651,29.2886667 20.2193488,29.178 C20.7734884,28.1733333 21.6444186,27.2176667 22.8080465,26.338 C23.352093,25.9256667 23.6519535,25.4173333 23.6522791,24.9033333 C23.6522791,24.7073333 23.8082326,24.5476667 24,24.5476667 C24.1917674,24.5476667 24.3477209,24.7066667 24.3477209,24.9033333 Z" id="hourglass"></path>
                    </g>
                </g>
            </g>
        </g>
    </g>
</svg>