<?xml version="1.0" encoding="UTF-8"?>
<svg width="21px" height="26px" viewBox="0 0 21 26" version="1.1" xmlns="http://www.w3.org/2000/svg" xmlns:xlink="http://www.w3.org/1999/xlink">
    <!-- Generator: sketchtool 50 (54983) - http://www.bohemiancoding.com/sketch -->
    <title>0165DC7D-5810-431E-BEB7-6181F462F829</title>
    <desc>Created with sketchtool.</desc>
    <defs>
        <linearGradient x1="-1.11022302e-14%" y1="50%" x2="98.2523483%" y2="50%" id="linearGradient-1">
            <stop stop-color="#DDC41C" offset="0%"></stop>
            <stop stop-color="#E09A00" offset="100%"></stop>
        </linearGradient>
    </defs>
    <g id="Page-1" stroke="none" stroke-width="1" fill="none" fill-rule="evenodd">
        <g id="contract-list-vertical" transform="translate(-1171.000000, -215.000000)" fill="url(#linearGradient-1)" fill-rule="nonzero">
            <g id="Group" transform="translate(204.000000, 120.000000)">
                <g id="contract" transform="translate(40.000000, 40.000000)">
                    <path d="M943.825267,70.0391935 C943.857552,70.0667646 943.888997,70.0958086 943.919515,70.1263266 C943.950033,70.1568447 943.979077,70.1882893 944.006648,70.2205746 L947.398232,73.6121583 C948.042575,74.2565018 948.029833,75.3139308 947.369772,75.9739919 L943.784333,79.5594314 C943.124271,80.2194926 942.066843,80.2322343 941.422499,79.5878908 C940.778156,78.9435473 940.790897,77.8861183 941.450958,77.2260572 L943.841251,74.8357642 L942.692351,73.6868642 L941.500762,74.8784532 C940.840701,75.5385144 939.783272,75.5512561 939.138929,74.9069126 C938.494585,74.2625691 938.507327,73.2051402 939.167388,72.545079 L940.358977,71.3534899 L937.230689,68.2252016 C934.632375,69.8692921 931.19577,69.5959512 928.980184,67.380365 C926.40281,64.802991 926.453776,60.5732752 929.094021,57.9330305 C931.734266,55.2927858 935.963981,55.241819 938.541355,57.8191931 C940.674395,59.9522326 941.007219,63.217002 939.561969,65.7758958 L943.825267,70.0391935 Z M936.094144,64.9331533 C937.414266,63.6130309 937.439749,61.4981731 936.151062,60.2094861 C934.862375,58.920799 932.747518,58.9462824 931.427395,60.2664048 C930.107273,61.5865271 930.08179,63.701385 931.370477,64.990072 C932.659164,66.278759 934.774021,66.2532756 936.094144,64.9331533 Z" id="check-key"></path>
                </g>
            </g>
        </g>
    </g>
</svg>