<?xml version="1.0" encoding="UTF-8"?>
<svg width="21px" height="26px" viewBox="0 0 21 26" version="1.1" xmlns="http://www.w3.org/2000/svg" xmlns:xlink="http://www.w3.org/1999/xlink">
    <!-- Generator: sketchtool 50 (54983) - http://www.bohemiancoding.com/sketch -->
    <title>153B9884-184C-41EF-946A-DC8537C3A2B1</title>
    <desc>Created with sketchtool.</desc>
    <defs>
        <linearGradient x1="-1.11022302e-14%" y1="50%" x2="98.2523483%" y2="50%" id="linearGradient-1">
            <stop stop-color="#B46DD0" offset="0%"></stop>
            <stop stop-color="#7E20C0" offset="100%"></stop>
        </linearGradient>
    </defs>
    <g id="Page-1" stroke="none" stroke-width="1" fill="none" fill-rule="evenodd">
        <g id="contract-list-vertical" transform="translate(-1129.000000, -215.000000)" fill="url(#linearGradient-1)" fill-rule="nonzero">
            <g id="Group" transform="translate(204.000000, 120.000000)">
                <g id="contract" transform="translate(40.000000, 40.000000)">
                    <path d="M901.825267,70.0391935 C901.857552,70.0667646 901.888997,70.0958086 901.919515,70.1263266 C901.950033,70.1568447 901.979077,70.1882893 902.006648,70.2205746 L905.398232,73.6121583 C906.042575,74.2565018 906.029833,75.3139308 905.369772,75.9739919 L901.784333,79.5594314 C901.124271,80.2194926 900.066843,80.2322343 899.422499,79.5878908 C898.778156,78.9435473 898.790897,77.8861183 899.450958,77.2260572 L901.841251,74.8357642 L900.692351,73.6868642 L899.500762,74.8784532 C898.840701,75.5385144 897.783272,75.5512561 897.138929,74.9069126 C896.494585,74.2625691 896.507327,73.2051402 897.167388,72.545079 L898.358977,71.3534899 L895.230689,68.2252016 C892.632375,69.8692921 889.19577,69.5959512 886.980184,67.380365 C884.40281,64.802991 884.453776,60.5732752 887.094021,57.9330305 C889.734266,55.2927858 893.963981,55.241819 896.541355,57.8191931 C898.674395,59.9522326 899.007219,63.217002 897.561969,65.7758958 L901.825267,70.0391935 Z M894.094144,64.9331533 C895.414266,63.6130309 895.439749,61.4981731 894.151062,60.2094861 C892.862375,58.920799 890.747518,58.9462824 889.427395,60.2664048 C888.107273,61.5865271 888.08179,63.701385 889.370477,64.990072 C890.659164,66.278759 892.774021,66.2532756 894.094144,64.9331533 Z" id="qa-key"></path>
                </g>
            </g>
        </g>
    </g>
</svg>