<?xml version="1.0" encoding="UTF-8"?>
<svg width="21px" height="26px" viewBox="0 0 21 26" version="1.1" xmlns="http://www.w3.org/2000/svg" xmlns:xlink="http://www.w3.org/1999/xlink">
    <!-- Generator: sketchtool 50 (54983) - http://www.bohemiancoding.com/sketch -->
    <title>DB65C818-2E63-4085-A00F-BA9B537F6D7A</title>
    <desc>Created with sketchtool.</desc>
    <defs>
        <linearGradient x1="-1.11022302e-14%" y1="50%" x2="100%" y2="50%" id="linearGradient-1">
            <stop stop-color="#0DB79A" offset="0%"></stop>
            <stop stop-color="#0391A6" offset="100%"></stop>
        </linearGradient>
    </defs>
    <g id="Page-1" stroke="none" stroke-width="1" fill="none" fill-rule="evenodd">
        <g id="contract-list-vertical" transform="translate(-871.000000, -215.000000)" fill="url(#linearGradient-1)" fill-rule="nonzero">
            <g id="Group" transform="translate(204.000000, 120.000000)">
                <g id="contract" transform="translate(40.000000, 40.000000)">
                    <path d="M643.825267,70.0391935 C643.857552,70.0667646 643.888997,70.0958086 643.919515,70.1263266 C643.950033,70.1568447 643.979077,70.1882893 644.006648,70.2205746 L647.398232,73.6121583 C648.042575,74.2565018 648.029833,75.3139308 647.369772,75.9739919 L643.784333,79.5594314 C643.124271,80.2194926 642.066843,80.2322343 641.422499,79.5878908 C640.778156,78.9435473 640.790897,77.8861183 641.450958,77.2260572 L643.841251,74.8357642 L642.692351,73.6868642 L641.500762,74.8784532 C640.840701,75.5385144 639.783272,75.5512561 639.138929,74.9069126 C638.494585,74.2625691 638.507327,73.2051402 639.167388,72.545079 L640.358977,71.3534899 L637.230689,68.2252016 C634.632375,69.8692921 631.19577,69.5959512 628.980184,67.380365 C626.40281,64.802991 626.453776,60.5732752 629.094021,57.9330305 C631.734266,55.2927858 635.963981,55.241819 638.541355,57.8191931 C640.674395,59.9522326 641.007219,63.217002 639.561969,65.7758958 L643.825267,70.0391935 Z M636.094144,64.9331533 C637.414266,63.6130309 637.439749,61.4981731 636.151062,60.2094861 C634.862375,58.920799 632.747518,58.9462824 631.427395,60.2664048 C630.107273,61.5865271 630.08179,63.701385 631.370477,64.990072 C632.659164,66.278759 634.774021,66.2532756 636.094144,64.9331533 Z" id="ts-exec-key"></path>
                </g>
            </g>
        </g>
    </g>
</svg>