<?xml version="1.0" encoding="UTF-8"?>
<svg width="21px" height="26px" viewBox="0 0 21 26" version="1.1" xmlns="http://www.w3.org/2000/svg" xmlns:xlink="http://www.w3.org/1999/xlink">
    <!-- Generator: sketchtool 50 (54983) - http://www.bohemiancoding.com/sketch -->
    <title>8E22D835-B7E9-454A-9001-299A4A33F909</title>
    <desc>Created with sketchtool.</desc>
    <defs>
        <linearGradient x1="-1.11022302e-14%" y1="50%" x2="100%" y2="50%" id="linearGradient-1">
            <stop stop-color="#C07B44" offset="0%"></stop>
            <stop stop-color="#B63C2C" offset="100%"></stop>
        </linearGradient>
    </defs>
    <g id="Page-1" stroke="none" stroke-width="1" fill="none" fill-rule="evenodd">
        <g id="contract-list-vertical" transform="translate(-651.000000, -215.000000)" fill="url(#linearGradient-1)" fill-rule="nonzero">
            <g id="Group" transform="translate(204.000000, 120.000000)">
                <g id="contract" transform="translate(40.000000, 40.000000)">
                    <path d="M423.825267,70.0391935 C423.857552,70.0667646 423.888997,70.0958086 423.919515,70.1263266 C423.950033,70.1568447 423.979077,70.1882893 424.006648,70.2205746 L427.398232,73.6121583 C428.042575,74.2565018 428.029833,75.3139308 427.369772,75.9739919 L423.784333,79.5594314 C423.124271,80.2194926 422.066843,80.2322343 421.422499,79.5878908 C420.778156,78.9435473 420.790897,77.8861183 421.450958,77.2260572 L423.841251,74.8357642 L422.692351,73.6868642 L421.500762,74.8784532 C420.840701,75.5385144 419.783272,75.5512561 419.138929,74.9069126 C418.494585,74.2625691 418.507327,73.2051402 419.167388,72.545079 L420.358977,71.3534899 L417.230689,68.2252016 C414.632375,69.8692921 411.19577,69.5959512 408.980184,67.380365 C406.40281,64.802991 406.453776,60.5732752 409.094021,57.9330305 C411.734266,55.2927858 415.963981,55.241819 418.541355,57.8191931 C420.674395,59.9522326 421.007219,63.217002 419.561969,65.7758958 L423.825267,70.0391935 Z M416.094144,64.9331533 C417.414266,63.6130309 417.439749,61.4981731 416.151062,60.2094861 C414.862375,58.920799 412.747518,58.9462824 411.427395,60.2664048 C410.107273,61.5865271 410.08179,63.701385 411.370477,64.990072 C412.659164,66.278759 414.774021,66.2532756 416.094144,64.9331533 Z" id="ts-key"></path>
                </g>
            </g>
        </g>
    </g>
</svg>