<svg xmlns="http://www.w3.org/2000/svg" width="49" height="45" viewBox="0 0 49 45">
    <path fill="#FCFCFC" fill-rule="evenodd" d="M46 27.999a10.059 10.059 0 0 0-2-2V18H26.858c.084.321.142.652.142 1a4 4 0 0 1-8 0c0-.348.058-.679.142-1H2v20a2 2 0 0 0 2 2h26a10.059 10.059 0 0 0 1.999 2H4a4 4 0 0 1-4-4V8a4 4 0 0 1 4-4h13V2a2 2 0 0 1 2-2h8a2 2 0 0 1 2 2v2h13a4 4 0 0 1 4 4v19.999zM2 16h42V8a2 2 0 0 0-2-2H4a2 2 0 0 0-2 2v8zm19.277 2A1.98 1.98 0 0 0 21 19a2 2 0 0 0 4 0 1.98 1.98 0 0 0-.277-1h-3.446zM20 2a1 1 0 0 0-1 1v1h8V3a1 1 0 0 0-1-1h-6zm22.32 36.32a6.118 6.118 0 1 0-8.652-8.652 6.118 6.118 0 0 0 8.652 8.652zm.581 1.993a8.001 8.001 0 0 1-10.564-11.976A8 8 0 0 1 44.313 38.9l.045.042 4.242 4.243a1 1 0 1 1-1.414 1.414l-4.243-4.242a1.015 1.015 0 0 1-.042-.045z"/>
</svg>
