<svg xmlns="http://www.w3.org/2000/svg" width="39" height="38" viewBox="0 0 39 38">
    <g fill="none" fill-rule="evenodd" transform="translate(-30 -25)">
        <circle cx="44" cy="44" r="44"/>
        <path fill="#FCFCFC" fill-rule="nonzero" d="M68.997 44.075a.987.987 0 0 1-.55.849l-6.823 6.824a.991.991 0 0 1-1.402-1.401l5.353-5.353H45.991a.991.991 0 0 1 0-1.982h19.59l-5.359-5.359a.991.991 0 0 1 1.402-1.401l6.824 6.824a.99.99 0 0 1 .549.86 1.006 1.006 0 0 1 0 .14zM58 32h-2v-3a2 2 0 0 0-2-2H34a2 2 0 0 0-2 2v30a2 2 0 0 0 2 2h20a2 2 0 0 0 2-2v-3h2v3a4 4 0 0 1-4 4H34a4 4 0 0 1-4-4V29a4 4 0 0 1 4-4h20a4 4 0 0 1 4 4v3z"/>
    </g>
</svg>
