<svg xmlns="http://www.w3.org/2000/svg" width="40" height="44" viewBox="0 0 40 44">
    <g fill="none" fill-rule="evenodd" transform="translate(-24 -22)">
        <circle cx="44" cy="44" r="44"/>
        <path fill="#FCFCFC" d="M62.872 54.862C56.8 48.074 55 49.978 55 40c0-6.634-.271-12.716-8.257-13.812A2.995 2.995 0 0 0 44 22a2.995 2.995 0 0 0-2.742 4.188C33.271 27.284 33 33.366 33 40c0 9.95-1.791 8.09-7.819 14.806C24.344 55.471 24 56.213 24 57c0 2.519 3.267 4.595 16.018 4.946 0 .02-.005.037-.005.055A3.994 3.994 0 0 0 44 66a3.994 3.994 0 0 0 3.987-3.999c0-.02-.005-.037-.005-.055C60.647 61.592 64 59.516 64 57c0-.766-.334-1.487-1.128-2.138zM44 23.996a1 1 0 0 1 .997 1 .998.998 0 1 1-1.994 0 1 1 0 0 1 .997-1zm0 40.006a1.997 1.997 0 0 1-1.994-1.999l.001-.018c.652.01 1.296.02 1.992.02s1.341-.01 1.992-.02l.001.018A1.994 1.994 0 0 1 44 64.002zm0-3.997c-17.795 0-18-2.882-18-3.005 0-.094 0-.291.424-.627 0 0 1.539-1.714 3.986-3.944C33.82 49.323 35 47.849 35 40c0-7.666.418-12.003 9-12.003S53 32.334 53 40c0 7.848 1.179 9.32 4.588 12.427 2.495 2.27 4.018 3.985 4.018 3.985.395.322.395.508.395.588-.001.123-.206 3.005-18.001 3.005z"/>
    </g>
</svg>
