<svg xmlns="http://www.w3.org/2000/svg" width="36" height="30" viewBox="0 0 36 30">
    <path fill="#fff" fill-rule="nonzero" d="M16.5 12.888l-.628-.628a1.5 1.5 0 0 0-2.121 2.12l3.134 3.134.046.047c.293.293.677.44 1.06.439a1.496 1.496 0 0 0 1.108-.486l3.135-3.134a1.499 1.499 0 1 0-2.121-2.12l-.613.612V1.5a1.5 1.5 0 0 0-3 0v11.389zM36 13.5v12.9a3.6 3.6 0 0 1-3.6 3.6H3.6A3.6 3.6 0 0 1 0 26.4V13.5a1.5 1.5 0 0 1 3 0v12.9a.6.6 0 0 0 .6.6h28.8a.6.6 0 0 0 .6-.6V13.5a1.5 1.5 0 0 1 3 0zM7.5 21h21a1.5 1.5 0 0 1 0 3h-21a1.5 1.5 0 0 1 0-3z"/>
</svg>
