<?xml version="1.0" encoding="UTF-8"?>
<svg width="32px" height="32px" viewBox="0 0 32 32" version="1.1" xmlns="http://www.w3.org/2000/svg" xmlns:xlink="http://www.w3.org/1999/xlink">
    <!-- Generator: sketchtool 50.2 (55047) - http://www.bohemiancoding.com/sketch -->
    <title>5AC08DA3-5134-4EF0-8353-0C4AECC8E5E7</title>
    <desc>Created with sketchtool.</desc>
    <defs></defs>
    <g id="Page-1" stroke="none" stroke-width="1" fill="none" fill-rule="evenodd" opacity="0.5">
        <g id="transactions-2.0-dark" transform="translate(-84.000000, -178.000000)" fill="#FCFCFC" fill-rule="nonzero">
            <g id="search" transform="translate(84.000000, 176.000000)">
                <g id="search-ic" transform="translate(0.000000, 2.000000)">
                    <path d="M20.7781746,20.7781746 C25.0739418,16.4824074 25.0739418,9.51759262 20.7781746,5.22182541 C16.4824074,0.926058198 9.51759262,0.926058198 5.22182541,5.22182541 C0.926058198,9.51759262 0.926058198,16.4824074 5.22182541,20.7781746 C9.51759262,25.0739418 16.4824074,25.0739418 20.7781746,20.7781746 Z M21.4584894,22.8727029 C16.3510058,27.2580539 8.64650601,27.0312823 3.80761184,22.1923882 C-1.26920395,17.1155724 -1.26920395,8.88442764 3.80761184,3.80761184 C8.88442764,-1.26920395 17.1155724,-1.26920395 22.1923882,3.80761184 C27.0312823,8.64650601 27.2580539,16.3510058 22.8727029,21.4584894 L31.3847763,29.9705627 L29.9705627,31.3847763 L21.4584894,22.8727029 Z" id="Combined-Shape-Copy"></path>
                </g>
            </g>
        </g>
    </g>
</svg>