<svg xmlns="http://www.w3.org/2000/svg" width="36" height="30" viewBox="0 0 36 30">
    <path fill="#fff" fill-rule="nonzero" d="M16.5 5.112l-.628.628a1.5 1.5 0 0 1-2.121-2.12L16.885.486l.046-.047c.293-.293.677-.44 1.06-.439A1.496 1.496 0 0 1 19.1.486l3.135 3.134a1.499 1.499 0 1 1-2.121 2.12l-.613-.612V16.5a1.5 1.5 0 0 1-3 0V5.112zM36 13.5v12.9a3.6 3.6 0 0 1-3.6 3.6H3.6A3.6 3.6 0 0 1 0 26.4V13.5a1.5 1.5 0 0 1 3 0v12.9a.6.6 0 0 0 .6.6h28.8a.6.6 0 0 0 .6-.6V13.5a1.5 1.5 0 0 1 3 0zM7.5 21h21a1.5 1.5 0 0 1 0 3h-21a1.5 1.5 0 0 1 0-3z"/>
</svg>
