<svg xmlns="http://www.w3.org/2000/svg" width="38" height="38" viewBox="0 0 38 38">
    <g fill="none" fill-rule="evenodd" transform="translate(-25 -25)">
        <circle cx="44" cy="44" r="44"/>
        <path fill="#000" d="M61.124 40.107A2.242 2.242 0 0 1 63 42.305v3.366a2.249 2.249 0 0 1-1.876 2.222l-2.745.46c-.29.942-.66 1.843-1.127 2.713l1.618 2.279a2.24 2.24 0 0 1-.242 2.899l-2.375 2.375a2.246 2.246 0 0 1-2.898.242l-2.27-1.619c-.87.467-1.78.846-2.713 1.128l-.467 2.754A2.248 2.248 0 0 1 45.683 63h-3.366a2.248 2.248 0 0 1-2.222-1.876l-.459-2.746a14.873 14.873 0 0 1-2.624-1.08l-2.303 1.635a2.246 2.246 0 0 1-2.898-.241l-2.375-2.376a2.24 2.24 0 0 1-.242-2.899l1.603-2.246a14.505 14.505 0 0 1-1.144-2.706l-2.777-.475A2.249 2.249 0 0 1 25 45.768v-3.366a2.22 2.22 0 0 1 1.884-2.207l2.721-.459c.274-.942.644-1.852 1.103-2.722l-1.634-2.303a2.24 2.24 0 0 1 .241-2.899l2.375-2.375a2.246 2.246 0 0 1 2.898-.242l2.247 1.603a14.499 14.499 0 0 1 2.705-1.144l.475-2.778A2.248 2.248 0 0 1 42.237 25h3.365a2.22 2.22 0 0 1 2.206 1.884l.459 2.722c.974.29 1.908.676 2.802 1.152l2.278-1.619a2.246 2.246 0 0 1 2.898.242l2.375 2.375a2.24 2.24 0 0 1 .242 2.899l-1.618 2.27c.467.87.845 1.78 1.127 2.715l2.753.467zm-.056 5.58v-3.358a.32.32 0 0 0-.266-.314l-3.357-.572a.96.96 0 0 1-.773-.708 12.892 12.892 0 0 0-1.4-3.374.966.966 0 0 1 .047-1.055l1.973-2.77a.309.309 0 0 0-.032-.411l-2.375-2.375a.32.32 0 0 0-.41-.04l-2.778 1.972a.98.98 0 0 1-1.055.04 13.066 13.066 0 0 0-3.454-1.417.978.978 0 0 1-.716-.78l-.556-3.335a.32.32 0 0 0-.314-.265h-3.365a.32.32 0 0 0-.314.265l-.572 3.382a.982.982 0 0 1-.708.773c-1.184.306-2.319.79-3.365 1.418a.95.95 0 0 1-1.055-.04l-2.754-1.965a.32.32 0 0 0-.41.04l-2.367 2.383a.328.328 0 0 0-.032.411l1.98 2.794a.968.968 0 0 1 .049 1.047 12.992 12.992 0 0 0-1.377 3.382.978.978 0 0 1-.781.717l-3.333.556a.32.32 0 0 0-.266.314v3.366c0 .153.113.29.266.314l3.381.571c.37.065.677.347.773.709a12.77 12.77 0 0 0 1.417 3.366.95.95 0 0 1-.04 1.055l-1.965 2.754a.309.309 0 0 0 .033.41l2.39 2.384a.32.32 0 0 0 .41.04l2.795-1.98a.966.966 0 0 1 1.039-.048 13.38 13.38 0 0 0 3.3 1.352c.37.088.644.394.709.773l.563 3.35a.32.32 0 0 0 .314.265h3.366a.32.32 0 0 0 .314-.265l.571-3.358a.96.96 0 0 1 .709-.773 12.887 12.887 0 0 0 3.373-1.401.965.965 0 0 1 1.055.048l2.77 1.973a.32.32 0 0 0 .41-.04l2.375-2.376a.328.328 0 0 0 .032-.41l-1.973-2.779a.981.981 0 0 1-.04-1.055 12.892 12.892 0 0 0 1.401-3.374.949.949 0 0 1 .773-.708l3.35-.564a.32.32 0 0 0 .265-.314zM44 51a7 7 0 1 1 0-14 7 7 0 0 1 0 14zm0-2a5 5 0 1 0 0-10 5 5 0 0 0 0 10z"/>
    </g>
</svg>
